<svg width="580" height="625" viewBox="0 0 580 625" fill="none" xmlns="http://www.w3.org/2000/svg">
<path d="M290.085 327.219V529.867M316.727 535.611L417.034 569.091C471.97 587.428 499.438 596.596 516.352 590.017C531.043 584.303 542.179 572.031 546.42 556.888C551.299 539.45 539.411 513.113 515.64 460.438L363.228 122.745C340.021 71.3296 328.421 45.622 312.303 37.6782C298.3 30.774 281.867 30.774 267.864 37.6782C251.749 45.622 240.146 71.3296 216.94 122.745L64.2673 461.021C40.5656 513.537 28.7145 539.795 33.5761 557.215C37.7981 572.344 48.9052 584.614 63.5675 590.348C80.451 596.95 107.86 587.88 162.677 569.738L265.999 535.546C275.414 532.43 280.123 530.872 284.935 530.257C289.209 529.712 293.534 529.717 297.805 530.274C302.618 530.901 307.32 532.471 316.727 535.611Z" stroke="url(#paint0_linear_1_4)" stroke-width="65" stroke-linecap="round" stroke-linejoin="round"/>
<defs>
<linearGradient id="paint0_linear_1_4" x1="32.5" y1="592.5" x2="547.5" y2="32.5" gradientUnits="userSpaceOnUse">
<stop stop-color="#618EE4"/>
<stop offset="1" stop-color="#CF28B9"/>
</linearGradient>
</defs>
</svg>
