<?xml version="1.0" encoding="UTF-8"?>
<svg xmlns="http://www.w3.org/2000/svg" xmlns:xlink="http://www.w3.org/1999/xlink" width="28px" height="28px" viewBox="0 0 28 28" version="1.1">
<g id="surface1">
<path style="stroke:none;fill-rule:nonzero;fill:#666;fill-opacity:1;" d="M 13.585938 24.394531 L 13.578125 24.390625 L 13.550781 24.378906 C 13.402344 24.292969 13.253906 24.210938 13.105469 24.125 C 11.328125 23.066406 9.667969 21.828125 8.152344 20.425781 C 5.46875 17.921875 2.625 14.203125 2.625 9.625 C 2.625 6.210938 5.5 3.5 8.96875 3.5 C 10.921875 3.492188 12.773438 4.371094 14 5.894531 C 15.226562 4.371094 17.078125 3.488281 19.03125 3.5 C 22.5 3.5 25.375 6.210938 25.375 9.625 C 25.375 14.203125 22.53125 17.921875 19.847656 20.421875 C 18.332031 21.828125 16.671875 23.066406 14.894531 24.121094 C 14.746094 24.210938 14.597656 24.292969 14.449219 24.378906 L 14.421875 24.390625 L 14.414062 24.394531 L 14.410156 24.398438 C 14.152344 24.535156 13.847656 24.535156 13.589844 24.398438 Z M 13.585938 24.394531 "/>
</g>
</svg>
