<svg viewBox="0 0 100 100" xml:space="preserve" xmlns="http://www.w3.org/2000/svg" shape-rendering="geometricPrecision" text-rendering="geometricPrecision" image-rendering="optimizeQuality" fill-rule="evenodd" clip-rule="evenodd"><path d="M19.064 80.936C1.98 63.85 1.98 36.15 19.064 19.064 36.15 1.98 63.85 1.98 80.936 19.064c17.085 17.086 17.085 44.786 0 61.872-17.086 17.085-44.786 17.085-61.872 0zm2.21-2.21c-15.865-15.865-15.865-41.587 0-57.452 15.865-15.865 41.587-15.865 57.452 0 15.865 15.865 15.865 41.587 0 57.452-15.865 15.865-41.587 15.865-57.452 0zm9.976-16.232a.044.044 0 0 0 .006.006h1.825l8.46-8.46a1.563 1.563 0 0 1 2.21 2.21L37.5 62.5h25l-6.242-6.242a1.564 1.564 0 1 1 2.202-2.218l8.46 8.46h1.824a.054.054 0 0 0 .006-.006V43.218l3.125-3.125V62.5a3.136 3.136 0 0 1-3.125 3.125h-37.5a3.135 3.135 0 0 1-3.125-3.125V40.093l3.125 3.125v19.276zm-2.76-26.455a3.134 3.134 0 0 1 2.76-1.664h37.5c1.191 0 2.232.677 2.76 1.664l-2.76 2.76-16.54 16.54a3.136 3.136 0 0 1-4.42 0l-19.3-19.3zm37.14 1.46H34.37L50 53.13 65.63 37.5z" fill="#ffffff" class="fill-008dd2"></path></svg>