<svg width="626" height="581" viewBox="0 0 626 581" fill="none" xmlns="http://www.w3.org/2000/svg">
<path d="M298.281 290.585H95.6331M89.8892 317.227L56.409 417.534C38.0722 472.47 28.9037 499.938 35.4834 516.852C41.197 531.543 53.469 542.679 68.612 546.92C86.0495 551.799 112.387 539.911 165.062 516.14L502.755 363.728C554.17 340.521 579.878 328.921 587.822 312.803C594.726 298.8 594.726 282.367 587.822 268.364C579.878 252.249 554.17 240.646 502.755 217.44L164.479 64.7673C111.963 41.0656 85.7053 29.2145 68.2851 34.0761C53.1565 38.2981 40.8858 49.4052 35.1522 64.0675C28.5499 80.951 37.6203 108.36 55.7616 163.177L89.9541 266.499C93.0697 275.914 94.6278 280.623 95.2426 285.435C95.7884 289.709 95.7827 294.034 95.2263 298.305C94.5988 303.118 93.0291 307.82 89.8892 317.227Z" stroke="url(#paint0_linear_1_4)" stroke-width="65" stroke-linecap="round" stroke-linejoin="round"/>
<defs>
<linearGradient id="paint0_linear_1_4" x1="33" y1="33" x2="593" y2="548" gradientUnits="userSpaceOnUse">
<stop stop-color="#618EE4"/>
<stop offset="1" stop-color="#CF28B9"/>
</linearGradient>
</defs>
</svg>
