<svg width="254" height="44" viewBox="0 0 254 44" fill="none" xmlns="http://www.w3.org/2000/svg">
<g clip-path="url(#clip0_0_3)">
<g clip-path="url(#clip1_0_3)">
<path d="M18.7417 39.9613L18.7406 39.9619C18.7413 39.9934 18.7417 40.0249 18.7417 40.0566C18.7417 42.2345 16.9762 44 14.7983 44C13.2102 44 11.8414 43.0612 11.2165 41.7084C10.9842 41.2055 10.4435 40.8582 9.89291 40.919C9.66629 40.9441 9.43601 40.9569 9.20272 40.9569C5.76858 40.9569 2.98467 38.173 2.98467 34.7389C2.98467 33.7259 3.22687 32.7696 3.65653 31.9245C3.95941 31.3288 3.71818 30.5243 3.13794 30.1928C1.26342 29.1218 -2.0225e-07 27.1034 0 24.79C2.0641e-07 22.4289 1.31593 20.3752 3.25437 19.3223C3.78156 19.0359 4.03476 18.3669 3.82919 17.8033C3.58679 17.1387 3.45454 16.4211 3.45454 15.6726C3.45454 12.5081 5.81851 9.89566 8.87684 9.50499C9.28951 9.45227 9.64359 9.17314 9.81052 8.79209C10.5306 7.14834 12.1719 6 14.0813 6C16.4675 6 18.4349 7.79341 18.709 10.1059C18.71 10.1139 18.7174 10.1195 18.7253 10.1182C18.7339 10.1167 18.7417 10.1233 18.7417 10.132V39.9613Z" fill="url(#paint0_linear_0_3)"/>
<path d="M21.592 39.9619C21.592 39.9616 21.5923 39.9617 21.592 39.9619C21.5913 39.9934 21.5909 40.0249 21.5909 40.0566C21.5909 42.2345 23.3564 44 25.5343 44C27.1224 44 28.4912 43.0612 29.1161 41.7084C29.3484 41.2055 29.8891 40.8582 30.4397 40.919C30.6663 40.9441 30.8966 40.9569 31.1299 40.9569C34.564 40.9569 37.3479 38.173 37.3479 34.7389C37.3479 33.7259 37.1057 32.7696 36.6761 31.9245C36.3732 31.3288 36.6144 30.5243 37.1947 30.1928C39.0692 29.1218 40.3326 27.1034 40.3326 24.79C40.3326 22.4289 39.0167 20.3752 37.0782 19.3223C36.5511 19.0359 36.2979 18.3669 36.5034 17.8033C36.7458 17.1387 36.8781 16.4211 36.8781 15.6726C36.8781 12.5081 34.5141 9.89566 31.4558 9.50499C31.0431 9.45227 30.689 9.17314 30.5221 8.79209C29.802 7.14834 28.1608 6 26.2513 6C23.8651 6 21.8977 7.79341 21.6236 10.1059C21.6226 10.1139 21.6152 10.1195 21.6073 10.1182C21.5987 10.1167 21.5909 10.1233 21.5909 10.132V39.9613C21.5907 39.9615 21.5909 39.9616 21.5909 39.9613L21.592 39.9619Z" fill="url(#paint1_linear_0_3)"/>
</g>
<path d="M198.848 27.8409H179.133C177.786 34.543 188.816 37.0031 191.861 32.5283C192.25 31.9614 192.29 31.1312 192.36 31.1312H198.848C197.211 42.4397 177.636 42.6928 173.703 33.2269C172.395 30.0986 172.505 20.3998 173.773 17.2209C177.087 8.899 192.729 8.50418 197.201 15.7226C197.63 16.4211 198.848 19.2153 198.848 19.8734V27.8511V27.8409ZM192.609 22.5259C193.218 13.5459 178.474 13.637 179.133 22.5259H192.609Z" fill="white"/>
<path d="M92.7369 10.7011C98.4867 10.1442 105.275 12.1488 107.022 18.3345C107.8 21.0983 107.85 29.3291 107.091 32.0829C104.207 42.5612 84.9807 42.6219 82.0559 32.2651C81.1875 29.1874 81.1975 20.5618 82.3055 17.5752C83.9725 13.07 88.2549 11.1262 92.7369 10.6909V10.7011ZM92.7269 16.0161C90.8802 16.2895 88.9936 17.5955 88.2848 19.357C87.5761 21.1186 87.5761 27.6587 87.8556 29.6734C88.774 36.1223 98.9758 36.3349 100.882 30.868C101.481 29.1672 101.471 22.8701 101.202 20.9465C100.583 16.6337 96.4703 15.4593 92.7269 16.0161Z" fill="white"/>
<path d="M167.903 39.4835H161.664V20.6327C161.664 20.2885 160.686 18.2636 160.377 17.8891C158.32 15.3986 153.08 15.2569 150.814 17.474C150.305 17.9701 149.186 19.9949 149.186 20.6327V39.4835H142.948V11.1364H149.186V15.4391L151.313 12.9182C156.543 8.77752 164.919 10.367 167.274 16.9678C167.374 17.2513 167.903 19.0027 167.903 19.1141V39.4835Z" fill="white"/>
<path d="M137.457 39.4835H131.218V20.6326C131.218 20.2884 130.24 18.2636 129.931 17.889C127.874 15.3985 122.634 15.2568 120.368 17.474C119.859 17.97 118.741 19.9948 118.741 20.6326V39.4835H112.502V11.1364H118.741V15.439L120.867 12.9182C125.798 8.99008 133.894 10.1847 136.499 16.2793C136.739 16.826 137.457 18.9116 137.457 19.357V39.4835Z" fill="white"/>
<path d="M76.8153 20.7541H70.7062C69.9575 19.0837 69.6381 17.6764 67.9212 16.745C64.8666 15.0948 59.2466 15.6618 57.849 19.3469C57.1203 21.2704 57.1004 28.6812 57.6794 30.6756C59.3165 36.3349 69.9575 36.1426 70.3368 29.8657H76.8253C76.4559 42.2068 55.5332 43.2496 51.8198 33.075C50.7317 30.0985 50.7217 20.4909 51.8198 17.5448C55.663 7.24877 76.406 8.40289 76.8253 20.7541H76.8153Z" fill="white"/>
<path d="M229.044 20.7542H222.935C222.097 18.2029 220.719 16.3401 217.924 15.9655C209.18 14.8013 209.07 21.7159 209.579 28.4787C209.938 33.318 213.033 35.1909 217.675 34.6442C220.619 34.3 222.027 32.5688 222.945 29.8657H229.054C228.665 42.0854 208.331 43.2395 204.229 33.4091C202.871 30.1593 202.911 20.4707 204.229 17.2209C208.281 7.25891 228.725 8.55478 229.054 20.7643L229.044 20.7542Z" fill="white"/>
<path d="M245.515 11.1364H254V16.1984H245.515V32.5182C245.515 32.8422 246.823 34.1583 247.132 34.1583H253.621L254 34.543V39.4835H246.394C243.189 39.4835 239.027 35.5959 239.027 32.2752V16.1984H232.538V11.1364H239.027V0H245.136L245.515 0.384716V11.1364Z" fill="white"/>
<path d="M102.769 0L99.9841 7.0463L97.778 7.08678V0H102.769Z" fill="white"/>
</g>
<defs>
<linearGradient id="paint0_linear_0_3" x1="-1.08566e-06" y1="5.62" x2="37.9327" y2="45.8811" gradientUnits="userSpaceOnUse">
<stop stop-color="#49A3ED"/>
<stop offset="1" stop-color="#E315B1"/>
</linearGradient>
<linearGradient id="paint1_linear_0_3" x1="-6.68314e-07" y1="5.62" x2="37.9327" y2="45.8811" gradientUnits="userSpaceOnUse">
<stop stop-color="#49A3ED"/>
<stop offset="1" stop-color="#E315B1"/>
</linearGradient>
<clipPath id="clip0_0_3">
<rect width="254" height="44" fill="white"/>
</clipPath>
<clipPath id="clip1_0_3">
<rect width="41" height="38" fill="white" transform="translate(0 6)"/>
</clipPath>
</defs>
</svg>
