<?xml version="1.0" encoding="UTF-8"?>
<svg xmlns="http://www.w3.org/2000/svg" xmlns:xlink="http://www.w3.org/1999/xlink" width="210px" height="44px" viewBox="0 0 210 44" version="1.1">
<defs>
<filter id="alpha" filterUnits="objectBoundingBox" x="0%" y="0%" width="100%" height="100%">
  <feColorMatrix type="matrix" in="SourceGraphic" values="0 0 0 0 1 0 0 0 0 1 0 0 0 0 1 0 0 0 1 0"/>
</filter>
<mask id="mask0">
  <g filter="url(#alpha)">
<rect x="0" y="0" width="210" height="44" style="fill:rgb(0%,0%,0%);fill-opacity:0.964;stroke:none;"/>
  </g>
</mask>
<clipPath id="clip1">
  <rect x="0" y="0" width="210" height="44"/>
</clipPath>
<g id="surface5" clip-path="url(#clip1)">
<path style=" stroke:none;fill-rule:evenodd;fill:rgb(97.647059%,97.647059%,97.647059%);fill-opacity:1;" d="M 80.65625 4.617188 C 81.980469 4.550781 83.300781 4.617188 84.613281 4.8125 C 83.867188 6.492188 83.171875 8.195312 82.535156 9.917969 C 81.929688 10.105469 81.304688 10.171875 80.65625 10.117188 C 80.65625 8.28125 80.65625 6.449219 80.65625 4.617188 Z M 80.65625 4.617188 "/>
</g>
<clipPath id="clip2">
  <rect x="0" y="0" width="210" height="44"/>
</clipPath>
<g id="surface8" clip-path="url(#clip2)">
<path style=" stroke:none;fill-rule:evenodd;fill:rgb(98.823529%,98.823529%,98.823529%);fill-opacity:1;" d="M 192.679688 4.8125 C 194.332031 4.8125 195.980469 4.8125 197.628906 4.8125 C 197.628906 7.628906 197.628906 10.445312 197.628906 13.257812 C 199.871094 13.257812 202.117188 13.257812 204.359375 13.257812 C 204.621094 14.570312 204.621094 15.878906 204.359375 17.1875 C 202.117188 17.1875 199.871094 17.1875 197.628906 17.1875 C 197.5625 21.28125 197.628906 25.339844 197.828125 29.367188 C 197.949219 30.328125 198.476562 30.917969 199.410156 31.132812 C 201.023438 31.328125 202.671875 31.394531 204.359375 31.332031 C 204.359375 32.640625 204.359375 33.949219 204.359375 35.257812 C 202.246094 35.292969 200.136719 35.257812 198.027344 35.160156 C 195.152344 34.632812 193.4375 32.964844 192.878906 30.152344 C 192.878906 25.832031 192.878906 21.507812 192.878906 17.1875 C 191.097656 17.1875 189.316406 17.1875 187.535156 17.1875 C 187.273438 15.863281 187.273438 14.523438 187.535156 13.160156 C 189.25 13.0625 190.964844 13.03125 192.679688 13.0625 C 192.679688 10.3125 192.679688 7.5625 192.679688 4.8125 Z M 192.679688 4.8125 "/>
</g>
<mask id="mask1">
  <g filter="url(#alpha)">
<rect x="0" y="0" width="210" height="44" style="fill:rgb(0%,0%,0%);fill-opacity:0.447;stroke:none;"/>
  </g>
</mask>
<clipPath id="clip3">
  <rect x="0" y="0" width="210" height="44"/>
</clipPath>
<g id="surface11" clip-path="url(#clip3)">
<path style=" stroke:none;fill-rule:evenodd;fill:rgb(57.647061%,57.647061%,57.647061%);fill-opacity:1;" d="M 192.679688 4.8125 C 194.359375 4.617188 196.074219 4.550781 197.828125 4.617188 C 197.828125 7.429688 197.828125 10.246094 197.828125 13.0625 C 200.039062 13 202.21875 13.0625 204.359375 13.257812 C 202.117188 13.257812 199.871094 13.257812 197.628906 13.257812 C 197.628906 10.445312 197.628906 7.628906 197.628906 4.8125 C 195.980469 4.8125 194.332031 4.8125 192.679688 4.8125 Z M 192.679688 4.8125 "/>
</g>
<mask id="mask2">
  <g filter="url(#alpha)">
<rect x="0" y="0" width="210" height="44" style="fill:rgb(0%,0%,0%);fill-opacity:0.993;stroke:none;"/>
  </g>
</mask>
<clipPath id="clip4">
  <rect x="0" y="0" width="210" height="44"/>
</clipPath>
<g id="surface14" clip-path="url(#clip4)">
<path style=" stroke:none;fill-rule:evenodd;fill:rgb(39.215687%,51.764709%,85.490197%);fill-opacity:1;" d="M 17.320312 9.722656 C 14.304688 12.558594 11.300781 15.308594 8.3125 17.972656 C 7.992188 18.40625 7.761719 18.867188 7.621094 19.347656 C 6.636719 15.300781 8.15625 12.78125 12.171875 11.785156 C 13.289062 9.53125 15.003906 8.84375 17.320312 9.722656 Z M 17.320312 9.722656 "/>
</g>
<clipPath id="clip5">
  <rect x="0" y="0" width="210" height="44"/>
</clipPath>
<g id="surface17" clip-path="url(#clip5)">
<path style=" stroke:none;fill-rule:evenodd;fill:rgb(48.235294%,43.137255%,81.568629%);fill-opacity:1;" d="M 27.015625 9.722656 C 26.605469 9.894531 26.210938 10.125 25.828125 10.410156 C 25.996094 10.714844 25.863281 10.914062 25.433594 11 C 25.660156 11.179688 25.628906 11.34375 25.335938 11.492188 C 25.003906 11.492188 24.675781 11.492188 24.34375 11.492188 C 24.160156 11.945312 23.863281 12.371094 23.453125 12.769531 C 23.519531 12.832031 23.585938 12.898438 23.652344 12.964844 C 23.363281 12.914062 23.101562 12.945312 22.859375 13.0625 C 23.078125 13.28125 23.078125 13.476562 22.859375 13.652344 C 22.722656 13.546875 22.625 13.417969 22.5625 13.257812 C 22.421875 13.546875 22.191406 13.679688 21.871094 13.652344 C 21.871094 13.128906 21.871094 12.605469 21.871094 12.082031 C 22.632812 9.832031 24.21875 8.949219 26.621094 9.429688 C 26.800781 9.484375 26.933594 9.582031 27.015625 9.722656 Z M 27.015625 9.722656 "/>
</g>
<mask id="mask3">
  <g filter="url(#alpha)">
<rect x="0" y="0" width="210" height="44" style="fill:rgb(0%,0%,0%);fill-opacity:0.99;stroke:none;"/>
  </g>
</mask>
<clipPath id="clip6">
  <rect x="0" y="0" width="210" height="44"/>
</clipPath>
<g id="surface20" clip-path="url(#clip6)">
<path style=" stroke:none;fill-rule:evenodd;fill:rgb(42.352942%,49.411765%,85.09804%);fill-opacity:1;" d="M 17.320312 9.722656 C 18.160156 9.96875 18.753906 10.492188 19.101562 11.292969 C 18.433594 11.453125 17.839844 11.714844 17.320312 12.082031 C 16.441406 12.84375 15.648438 13.695312 14.945312 14.632812 C 14.207031 14.824219 13.613281 15.3125 13.164062 16.105469 C 12.964844 16.171875 12.765625 16.238281 12.566406 16.304688 C 12.632812 16.367188 12.699219 16.433594 12.765625 16.5 C 12.535156 16.597656 12.371094 16.761719 12.269531 16.992188 C 12.207031 16.925781 12.140625 16.859375 12.074219 16.792969 C 12.023438 17.015625 11.925781 17.210938 11.777344 17.382812 C 9.78125 19.265625 7.734375 21.132812 5.640625 22.980469 C 5.121094 23.722656 4.855469 24.542969 4.847656 25.4375 C 4.308594 22.773438 5.234375 20.742188 7.621094 19.347656 C 7.761719 18.867188 7.992188 18.40625 8.3125 17.972656 C 11.300781 15.308594 14.304688 12.558594 17.320312 9.722656 Z M 17.320312 9.722656 "/>
</g>
<clipPath id="clip7">
  <rect x="0" y="0" width="210" height="44"/>
</clipPath>
<g id="surface23" clip-path="url(#clip7)">
<path style=" stroke:none;fill-rule:evenodd;fill:rgb(50.588238%,38.039216%,76.862746%);fill-opacity:1;" d="M 27.015625 9.722656 C 27.941406 9.984375 28.535156 10.574219 28.796875 11.492188 C 28.667969 11.429688 28.539062 11.367188 28.402344 11.292969 C 28.257812 11.628906 28.058594 11.921875 27.808594 12.179688 C 26.933594 12.6875 26.140625 13.308594 25.433594 14.042969 C 25.339844 14.367188 25.144531 14.59375 24.839844 14.730469 C 24.90625 14.796875 24.972656 14.863281 25.039062 14.929688 C 24.382812 15.078125 23.855469 15.402344 23.453125 15.910156 C 23.519531 15.976562 23.585938 16.042969 23.652344 16.105469 C 23.257812 16.546875 22.730469 16.972656 22.070312 17.382812 C 21.871094 18.882812 21.804688 20.390625 21.871094 21.902344 C 21.871094 22.820312 21.871094 23.734375 21.871094 24.652344 C 21.871094 25.4375 21.871094 26.222656 21.871094 27.007812 C 21.871094 27.859375 21.871094 28.710938 21.871094 29.5625 C 21.871094 30.28125 21.871094 31.003906 21.871094 31.722656 C 21.871094 32.574219 21.871094 33.425781 21.871094 34.277344 C 21.871094 35.128906 21.871094 35.980469 21.871094 36.832031 C 21.605469 28.582031 21.605469 20.332031 21.871094 12.082031 C 21.871094 12.605469 21.871094 13.128906 21.871094 13.652344 C 22.191406 13.679688 22.421875 13.546875 22.5625 13.257812 C 22.625 13.417969 22.722656 13.546875 22.859375 13.652344 C 23.078125 13.476562 23.078125 13.28125 22.859375 13.0625 C 23.101562 12.945312 23.363281 12.914062 23.652344 12.964844 C 23.585938 12.898438 23.519531 12.832031 23.453125 12.769531 C 23.863281 12.371094 24.160156 11.945312 24.34375 11.492188 C 24.675781 11.492188 25.003906 11.492188 25.335938 11.492188 C 25.628906 11.34375 25.660156 11.179688 25.433594 11 C 25.863281 10.914062 25.996094 10.714844 25.828125 10.410156 C 26.210938 10.125 26.605469 9.894531 27.015625 9.722656 Z M 27.015625 9.722656 "/>
</g>
<clipPath id="clip8">
  <rect x="0" y="0" width="210" height="44"/>
</clipPath>
<g id="surface26" clip-path="url(#clip8)">
<path style=" stroke:none;fill-rule:evenodd;fill:rgb(45.09804%,47.843137%,84.705883%);fill-opacity:1;" d="M 19.101562 11.292969 C 19.386719 11.703125 19.515625 12.164062 19.496094 12.667969 C 19.28125 12.675781 19.082031 12.742188 18.902344 12.867188 C 18.335938 13.445312 17.808594 14.066406 17.320312 14.730469 C 15.785156 15.667969 14.5625 16.8125 13.65625 18.167969 C 13.445312 18.015625 13.214844 18.050781 12.964844 18.269531 C 13.03125 18.332031 13.097656 18.398438 13.164062 18.464844 C 12.398438 18.960938 11.769531 19.582031 11.28125 20.332031 C 11.214844 20.265625 11.148438 20.199219 11.082031 20.132812 C 10.96875 20.597656 10.671875 20.792969 10.191406 20.722656 C 10.1875 21.261719 9.988281 21.722656 9.597656 22.097656 C 9.640625 22.214844 9.707031 22.3125 9.796875 22.394531 C 8.542969 23.441406 7.289062 24.492188 6.035156 25.535156 C 5.707031 25.832031 5.507812 26.191406 5.441406 26.617188 C 5.039062 26.339844 4.839844 25.945312 4.847656 25.4375 C 4.855469 24.542969 5.121094 23.722656 5.640625 22.980469 C 7.734375 21.132812 9.78125 19.265625 11.777344 17.382812 C 11.925781 17.210938 12.023438 17.015625 12.074219 16.792969 C 12.140625 16.859375 12.207031 16.925781 12.269531 16.992188 C 12.371094 16.761719 12.535156 16.597656 12.765625 16.5 C 12.699219 16.433594 12.632812 16.367188 12.566406 16.304688 C 12.765625 16.238281 12.964844 16.171875 13.164062 16.105469 C 13.613281 15.3125 14.207031 14.824219 14.945312 14.632812 C 15.648438 13.695312 16.441406 12.84375 17.320312 12.082031 C 17.839844 11.714844 18.433594 11.453125 19.101562 11.292969 Z M 19.101562 11.292969 "/>
</g>
<clipPath id="clip9">
  <rect x="0" y="0" width="210" height="44"/>
</clipPath>
<g id="surface29" clip-path="url(#clip9)">
<path style=" stroke:none;fill-rule:evenodd;fill:rgb(56.470591%,36.862746%,80.392158%);fill-opacity:1;" d="M 28.796875 11.492188 C 29.890625 11.902344 30.949219 12.425781 31.964844 13.0625 C 29.074219 15.441406 26.335938 17.996094 23.75 20.722656 C 23.683594 20.65625 23.621094 20.59375 23.554688 20.527344 C 23.066406 21.109375 22.507812 21.566406 21.871094 21.902344 C 21.804688 20.390625 21.871094 18.882812 22.070312 17.382812 C 22.730469 16.972656 23.257812 16.546875 23.652344 16.105469 C 23.585938 16.042969 23.519531 15.976562 23.453125 15.910156 C 23.855469 15.402344 24.382812 15.078125 25.039062 14.929688 C 24.972656 14.863281 24.90625 14.796875 24.839844 14.730469 C 25.144531 14.59375 25.339844 14.367188 25.433594 14.042969 C 26.140625 13.308594 26.933594 12.6875 27.808594 12.179688 C 28.058594 11.921875 28.257812 11.628906 28.402344 11.292969 C 28.539062 11.367188 28.667969 11.429688 28.796875 11.492188 Z M 28.796875 11.492188 "/>
</g>
<mask id="mask4">
  <g filter="url(#alpha)">
<rect x="0" y="0" width="210" height="44" style="fill:rgb(0%,0%,0%);fill-opacity:0.992;stroke:none;"/>
  </g>
</mask>
<clipPath id="clip10">
  <rect x="0" y="0" width="210" height="44"/>
</clipPath>
<g id="surface32" clip-path="url(#clip10)">
<path style=" stroke:none;fill-rule:evenodd;fill:rgb(97.254902%,97.254902%,97.254902%);fill-opacity:1;" d="M 63.832031 19.542969 C 63.832031 19.871094 63.832031 20.199219 63.832031 20.527344 C 62.183594 20.527344 60.53125 20.527344 58.882812 20.527344 C 58.1875 18.03125 56.507812 16.855469 53.835938 16.992188 C 51.695312 16.875 50.113281 17.722656 49.085938 19.542969 C 48.863281 21.101562 48.765625 22.671875 48.789062 24.257812 C 48.105469 30.140625 50.675781 32.402344 56.507812 31.035156 C 57.957031 30.417969 58.75 29.335938 58.882812 27.792969 C 60.597656 27.792969 62.3125 27.792969 64.027344 27.792969 C 63.621094 31.574219 61.574219 34.03125 57.894531 35.160156 C 53.78125 36.269531 49.953125 35.679688 46.414062 33.394531 C 44.9375 32.195312 44.046875 30.65625 43.742188 28.777344 C 43.554688 25.425781 43.621094 22.085938 43.941406 18.757812 C 45.394531 15.332031 48 13.402344 51.757812 12.964844 C 55.019531 12.472656 58.054688 13.0625 60.863281 14.730469 C 62.476562 15.96875 63.464844 17.574219 63.832031 19.542969 Z M 63.832031 19.542969 "/>
</g>
<mask id="mask5">
  <g filter="url(#alpha)">
<rect x="0" y="0" width="210" height="44" style="fill:rgb(0%,0%,0%);fill-opacity:0.99;stroke:none;"/>
  </g>
</mask>
<clipPath id="clip11">
  <rect x="0" y="0" width="210" height="44"/>
</clipPath>
<g id="surface35" clip-path="url(#clip11)">
<path style=" stroke:none;fill-rule:evenodd;fill:rgb(98.039216%,98.039216%,98.039216%);fill-opacity:1;" d="M 75.90625 12.867188 C 79.054688 12.503906 82.023438 13.058594 84.8125 14.535156 C 86.503906 15.570312 87.59375 17.042969 88.078125 18.957031 C 88.296875 20.710938 88.394531 22.480469 88.375 24.257812 C 89.054688 31.703125 85.621094 35.503906 78.082031 35.652344 C 74.699219 35.789062 71.832031 34.675781 69.472656 32.3125 C 68.800781 31.503906 68.339844 30.589844 68.085938 29.5625 C 67.769531 26.300781 67.703125 23.023438 67.890625 19.742188 C 68.488281 16.851562 70.171875 14.855469 72.9375 13.75 C 73.941406 13.421875 74.929688 13.125 75.90625 12.867188 Z M 76.894531 16.992188 C 78.507812 16.824219 80.023438 17.117188 81.445312 17.875 C 82.605469 18.632812 83.230469 19.714844 83.328125 21.117188 C 83.460938 23.144531 83.460938 25.175781 83.328125 27.207031 C 83.039062 29.71875 81.621094 31.125 79.070312 31.429688 C 76.777344 31.78125 74.894531 31.09375 73.429688 29.367188 C 73.113281 28.746094 72.914062 28.09375 72.835938 27.402344 C 72.703125 25.371094 72.703125 23.34375 72.835938 21.3125 C 73.070312 18.820312 74.425781 17.378906 76.894531 16.992188 Z M 76.894531 16.992188 "/>
</g>
<mask id="mask6">
  <g filter="url(#alpha)">
<rect x="0" y="0" width="210" height="44" style="fill:rgb(0%,0%,0%);fill-opacity:0.99;stroke:none;"/>
  </g>
</mask>
<clipPath id="clip12">
  <rect x="0" y="0" width="210" height="44"/>
</clipPath>
<g id="surface38" clip-path="url(#clip12)">
<path style=" stroke:none;fill-rule:evenodd;fill:rgb(97.254902%,97.254902%,97.254902%);fill-opacity:1;" d="M 102.625 12.867188 C 108.277344 12.421875 111.476562 14.976562 112.222656 20.527344 C 112.324219 25.4375 112.355469 30.347656 112.324219 35.257812 C 110.609375 35.257812 108.894531 35.257812 107.175781 35.257812 C 107.269531 30.207031 107.167969 25.164062 106.878906 20.132812 C 106.101562 17.992188 104.550781 16.945312 102.230469 16.992188 C 100.003906 16.964844 98.453125 17.945312 97.578125 19.9375 C 97.292969 25.039062 97.191406 30.144531 97.28125 35.257812 C 95.566406 35.257812 93.851562 35.257812 92.136719 35.257812 C 92.101562 27.925781 92.136719 20.59375 92.234375 13.257812 C 93.898438 13.066406 95.582031 13 97.28125 13.0625 C 97.246094 14.175781 97.28125 15.289062 97.378906 16.402344 C 98.683594 14.546875 100.433594 13.367188 102.625 12.867188 Z M 102.625 12.867188 "/>
</g>
<mask id="mask7">
  <g filter="url(#alpha)">
<rect x="0" y="0" width="210" height="44" style="fill:rgb(0%,0%,0%);fill-opacity:0.99;stroke:none;"/>
  </g>
</mask>
<clipPath id="clip13">
  <rect x="0" y="0" width="210" height="44"/>
</clipPath>
<g id="surface41" clip-path="url(#clip13)">
<path style=" stroke:none;fill-rule:evenodd;fill:rgb(97.254902%,97.254902%,97.254902%);fill-opacity:1;" d="M 126.773438 12.867188 C 132.425781 12.421875 135.625 14.976562 136.371094 20.527344 C 136.46875 25.4375 136.503906 30.347656 136.46875 35.257812 C 134.753906 35.257812 133.039062 35.257812 131.324219 35.257812 C 131.414062 30.207031 131.316406 25.164062 131.027344 20.132812 C 130.25 17.992188 128.699219 16.945312 126.375 16.992188 C 124.152344 16.964844 122.601562 17.945312 121.726562 19.9375 C 121.4375 25.039062 121.339844 30.144531 121.429688 35.257812 C 119.710938 35.257812 117.996094 35.257812 116.28125 35.257812 C 116.25 27.925781 116.28125 20.59375 116.378906 13.257812 C 118.046875 13.066406 119.730469 13 121.429688 13.0625 C 121.394531 14.175781 121.429688 15.289062 121.527344 16.402344 C 122.832031 14.546875 124.582031 13.367188 126.773438 12.867188 Z M 126.773438 12.867188 "/>
</g>
<mask id="mask8">
  <g filter="url(#alpha)">
<rect x="0" y="0" width="210" height="44" style="fill:rgb(0%,0%,0%);fill-opacity:0.989;stroke:none;"/>
  </g>
</mask>
<clipPath id="clip14">
  <rect x="0" y="0" width="210" height="44"/>
</clipPath>
<g id="surface44" clip-path="url(#clip14)">
<path style=" stroke:none;fill-rule:evenodd;fill:rgb(98.039216%,98.039216%,98.039216%);fill-opacity:1;" d="M 148.542969 12.867188 C 158.078125 12.375 162.167969 16.828125 160.816406 26.222656 C 155.601562 26.222656 150.390625 26.222656 145.179688 26.222656 C 145.195312 29.351562 146.78125 31.085938 149.929688 31.429688 C 151.925781 31.738281 153.671875 31.246094 155.175781 29.957031 C 155.339844 29.628906 155.503906 29.300781 155.667969 28.972656 C 157.378906 28.777344 159.09375 28.710938 160.816406 28.777344 C 160.300781 31.679688 158.652344 33.675781 155.867188 34.769531 C 151.515625 36.246094 147.359375 35.855469 143.398438 33.589844 C 141.75 32.378906 140.726562 30.773438 140.328125 28.777344 C 140.199219 25.765625 140.199219 22.753906 140.328125 19.742188 C 140.929688 16.851562 142.613281 14.855469 145.378906 13.75 C 146.441406 13.386719 147.496094 13.09375 148.542969 12.867188 Z M 149.335938 16.992188 C 151.214844 16.800781 152.929688 17.226562 154.480469 18.269531 C 155.433594 19.359375 155.894531 20.636719 155.867188 22.097656 C 152.304688 22.097656 148.742188 22.097656 145.179688 22.097656 C 145.164062 19.234375 146.550781 17.53125 149.335938 16.992188 Z M 149.335938 16.992188 "/>
</g>
<mask id="mask9">
  <g filter="url(#alpha)">
<rect x="0" y="0" width="210" height="44" style="fill:rgb(0%,0%,0%);fill-opacity:0.992;stroke:none;"/>
  </g>
</mask>
<clipPath id="clip15">
  <rect x="0" y="0" width="210" height="44"/>
</clipPath>
<g id="surface47" clip-path="url(#clip15)">
<path style=" stroke:none;fill-rule:evenodd;fill:rgb(97.254902%,97.254902%,97.254902%);fill-opacity:1;" d="M 184.566406 19.542969 C 184.566406 19.871094 184.566406 20.199219 184.566406 20.527344 C 182.863281 20.640625 181.214844 20.511719 179.617188 20.132812 C 178.707031 17.925781 177.023438 16.878906 174.570312 16.992188 C 172.457031 16.921875 170.871094 17.773438 169.820312 19.542969 C 169.601562 21.105469 169.503906 22.675781 169.523438 24.257812 C 168.84375 30.144531 171.414062 32.402344 177.242188 31.035156 C 178.691406 30.417969 179.484375 29.335938 179.617188 27.792969 C 181.332031 27.792969 183.050781 27.792969 184.765625 27.792969 C 184.355469 31.574219 182.308594 34.03125 178.628906 35.160156 C 174.519531 36.234375 170.695312 35.644531 167.148438 33.394531 C 165.753906 32.140625 164.863281 30.601562 164.476562 28.777344 C 164.34375 25.765625 164.34375 22.753906 164.476562 19.742188 C 165.601562 15.722656 168.273438 13.464844 172.492188 12.964844 C 175.753906 12.472656 178.789062 13.0625 181.597656 14.730469 C 183.273438 15.929688 184.261719 17.535156 184.566406 19.542969 Z M 184.566406 19.542969 "/>
</g>
<mask id="mask10">
  <g filter="url(#alpha)">
<rect x="0" y="0" width="210" height="44" style="fill:rgb(0%,0%,0%);fill-opacity:0.995;stroke:none;"/>
  </g>
</mask>
<clipPath id="clip16">
  <rect x="0" y="0" width="210" height="44"/>
</clipPath>
<g id="surface50" clip-path="url(#clip16)">
<path style=" stroke:none;fill-rule:evenodd;fill:rgb(47.450981%,45.490196%,84.313726%);fill-opacity:1;" d="M 19.496094 12.667969 C 19.496094 13.390625 19.496094 14.109375 19.496094 14.832031 C 17.777344 16.5 15.996094 18.105469 14.152344 19.644531 C 13.75 20.363281 13.089844 20.953125 12.171875 21.410156 C 11.417969 22.453125 10.496094 23.300781 9.402344 23.964844 C 9.136719 24.09375 9.136719 24.226562 9.402344 24.355469 C 8.183594 25.273438 7.058594 26.289062 6.035156 27.402344 C 5.6875 27.253906 5.488281 26.988281 5.441406 26.617188 C 5.507812 26.191406 5.707031 25.832031 6.035156 25.535156 C 7.289062 24.492188 8.542969 23.441406 9.796875 22.394531 C 9.707031 22.3125 9.640625 22.214844 9.597656 22.097656 C 9.988281 21.722656 10.1875 21.261719 10.191406 20.722656 C 10.671875 20.792969 10.96875 20.597656 11.082031 20.132812 C 11.148438 20.199219 11.214844 20.265625 11.28125 20.332031 C 11.769531 19.582031 12.398438 18.960938 13.164062 18.464844 C 13.097656 18.398438 13.03125 18.332031 12.964844 18.269531 C 13.214844 18.050781 13.445312 18.015625 13.65625 18.167969 C 14.5625 16.8125 15.785156 15.667969 17.320312 14.730469 C 17.808594 14.066406 18.335938 13.445312 18.902344 12.867188 C 19.082031 12.742188 19.28125 12.675781 19.496094 12.667969 Z M 19.496094 12.667969 "/>
</g>
<clipPath id="clip17">
  <rect x="0" y="0" width="210" height="44"/>
</clipPath>
<g id="surface53" clip-path="url(#clip17)">
<path style=" stroke:none;fill-rule:evenodd;fill:rgb(60.000002%,33.333334%,79.215688%);fill-opacity:1;" d="M 31.964844 13.0625 C 32.652344 13.480469 33.113281 14.070312 33.351562 14.832031 C 33.042969 15.066406 32.714844 15.292969 32.359375 15.519531 C 32.425781 15.582031 32.492188 15.648438 32.558594 15.714844 C 32.195312 15.8125 31.964844 16.042969 31.867188 16.402344 C 31.164062 16.496094 30.472656 16.792969 29.789062 17.285156 C 29.789062 17.480469 29.789062 17.679688 29.789062 17.875 C 29.601562 17.996094 29.433594 17.964844 29.292969 17.777344 C 29.027344 18.167969 28.765625 18.5625 28.5 18.957031 C 28.433594 18.890625 28.371094 18.824219 28.304688 18.757812 C 27.648438 19.289062 27.121094 19.945312 26.71875 20.722656 C 26.652344 20.65625 26.589844 20.59375 26.523438 20.527344 C 25.113281 22.089844 23.566406 23.464844 21.871094 24.652344 C 21.871094 23.734375 21.871094 22.820312 21.871094 21.902344 C 22.507812 21.566406 23.066406 21.109375 23.554688 20.527344 C 23.621094 20.59375 23.683594 20.65625 23.75 20.722656 C 26.335938 17.996094 29.074219 15.441406 31.964844 13.0625 Z M 31.964844 13.0625 "/>
</g>
<clipPath id="clip18">
  <rect x="0" y="0" width="210" height="44"/>
</clipPath>
<g id="surface56" clip-path="url(#clip18)">
<path style=" stroke:none;fill-rule:evenodd;fill:rgb(62.352943%,30.980393%,78.431374%);fill-opacity:1;" d="M 33.351562 14.832031 C 33.59375 15.167969 33.726562 15.558594 33.746094 16.007812 C 33.640625 16.25 33.378906 16.414062 32.953125 16.5 C 33.019531 16.566406 33.085938 16.632812 33.152344 16.695312 C 32.875 16.980469 32.546875 17.144531 32.164062 17.1875 C 31.730469 17.410156 31.398438 17.867188 31.171875 18.5625 C 30.421875 19.0625 29.761719 19.652344 29.195312 20.332031 C 29.03125 20.503906 28.832031 20.570312 28.601562 20.527344 C 28.597656 21.089844 28.367188 21.285156 27.90625 21.117188 C 27.4375 21.808594 26.910156 22.464844 26.324219 23.082031 C 26.257812 23.015625 26.191406 22.949219 26.125 22.882812 C 25.621094 23.84375 24.863281 24.53125 23.851562 24.945312 C 23.917969 25.011719 23.980469 25.078125 24.046875 25.144531 C 23.683594 25.472656 23.351562 25.832031 23.058594 26.222656 C 22.722656 26.164062 22.390625 26.261719 22.070312 26.519531 C 22.28125 26.746094 22.214844 26.910156 21.871094 27.007812 C 21.871094 26.222656 21.871094 25.4375 21.871094 24.652344 C 23.566406 23.464844 25.113281 22.089844 26.523438 20.527344 C 26.589844 20.59375 26.652344 20.65625 26.71875 20.722656 C 27.121094 19.945312 27.648438 19.289062 28.304688 18.757812 C 28.371094 18.824219 28.433594 18.890625 28.5 18.957031 C 28.765625 18.5625 29.027344 18.167969 29.292969 17.777344 C 29.433594 17.964844 29.601562 17.996094 29.789062 17.875 C 29.789062 17.679688 29.789062 17.480469 29.789062 17.285156 C 30.472656 16.792969 31.164062 16.496094 31.867188 16.402344 C 31.964844 16.042969 32.195312 15.8125 32.558594 15.714844 C 32.492188 15.648438 32.425781 15.582031 32.359375 15.519531 C 32.714844 15.292969 33.042969 15.066406 33.351562 14.832031 Z M 33.351562 14.832031 "/>
</g>
<mask id="mask11">
  <g filter="url(#alpha)">
<rect x="0" y="0" width="210" height="44" style="fill:rgb(0%,0%,0%);fill-opacity:0.989;stroke:none;"/>
  </g>
</mask>
<clipPath id="clip19">
  <rect x="0" y="0" width="210" height="44"/>
</clipPath>
<g id="surface59" clip-path="url(#clip19)">
<path style=" stroke:none;fill-rule:evenodd;fill:rgb(49.803922%,43.137255%,83.137256%);fill-opacity:1;" d="M 19.496094 14.832031 C 19.496094 15.8125 19.496094 16.792969 19.496094 17.777344 C 18.574219 18.710938 17.550781 19.695312 16.429688 20.722656 C 16.363281 20.65625 16.296875 20.59375 16.230469 20.527344 C 15.980469 21.160156 15.550781 21.617188 14.945312 21.902344 C 14.472656 22.539062 13.976562 22.996094 13.460938 23.277344 C 12.007812 24.785156 10.457031 26.191406 8.808594 27.5 C 8.375 27.960938 7.980469 28.453125 7.621094 28.972656 C 7.101562 28.449219 6.574219 27.925781 6.035156 27.402344 C 7.058594 26.289062 8.183594 25.273438 9.402344 24.355469 C 9.136719 24.226562 9.136719 24.09375 9.402344 23.964844 C 10.496094 23.300781 11.417969 22.453125 12.171875 21.410156 C 13.089844 20.953125 13.75 20.363281 14.152344 19.644531 C 15.996094 18.105469 17.777344 16.5 19.496094 14.832031 Z M 19.496094 14.832031 "/>
</g>
<mask id="mask12">
  <g filter="url(#alpha)">
<rect x="0" y="0" width="210" height="44" style="fill:rgb(0%,0%,0%);fill-opacity:0.678;stroke:none;"/>
  </g>
</mask>
<clipPath id="clip20">
  <rect x="0" y="0" width="210" height="44"/>
</clipPath>
<g id="surface62" clip-path="url(#clip20)">
<path style=" stroke:none;fill-rule:evenodd;fill:rgb(73.725492%,73.725492%,73.725492%);fill-opacity:1;" d="M 187.535156 17.1875 C 189.316406 17.1875 191.097656 17.1875 192.878906 17.1875 C 192.878906 21.507812 192.878906 25.832031 192.878906 30.152344 C 192.683594 25.929688 192.617188 21.675781 192.679688 17.382812 C 190.929688 17.449219 189.214844 17.382812 187.535156 17.1875 Z M 187.535156 17.1875 "/>
</g>
<mask id="mask13">
  <g filter="url(#alpha)">
<rect x="0" y="0" width="210" height="44" style="fill:rgb(0%,0%,0%);fill-opacity:0.447;stroke:none;"/>
  </g>
</mask>
<clipPath id="clip21">
  <rect x="0" y="0" width="210" height="44"/>
</clipPath>
<g id="surface65" clip-path="url(#clip21)">
<path style=" stroke:none;fill-rule:evenodd;fill:rgb(56.862748%,56.862748%,56.862748%);fill-opacity:1;" d="M 204.359375 17.1875 C 202.21875 17.382812 200.039062 17.449219 197.828125 17.382812 C 197.828125 21.378906 197.828125 25.371094 197.828125 29.367188 C 197.628906 25.339844 197.5625 21.28125 197.628906 17.1875 C 199.871094 17.1875 202.117188 17.1875 204.359375 17.1875 Z M 204.359375 17.1875 "/>
</g>
<clipPath id="clip22">
  <rect x="0" y="0" width="210" height="44"/>
</clipPath>
<g id="surface68" clip-path="url(#clip22)">
<path style=" stroke:none;fill-rule:evenodd;fill:rgb(64.313728%,28.627452%,76.862746%);fill-opacity:1;" d="M 33.746094 16.007812 C 33.976562 17.0625 33.910156 18.109375 33.546875 19.152344 C 33.425781 19.128906 33.328125 19.066406 33.25 18.957031 C 31.609375 20.390625 30.09375 21.832031 28.699219 23.277344 C 28.632812 23.210938 28.566406 23.144531 28.5 23.082031 C 27.910156 23.984375 27.085938 24.800781 26.027344 25.535156 C 26.09375 25.601562 26.160156 25.667969 26.226562 25.730469 C 25.6875 26.046875 25.257812 26.472656 24.9375 27.007812 C 24.871094 26.945312 24.808594 26.878906 24.742188 26.8125 C 23.808594 27.769531 22.851562 28.6875 21.871094 29.5625 C 21.871094 28.710938 21.871094 27.859375 21.871094 27.007812 C 22.214844 26.910156 22.28125 26.746094 22.070312 26.519531 C 22.390625 26.261719 22.722656 26.164062 23.058594 26.222656 C 23.351562 25.832031 23.683594 25.472656 24.046875 25.144531 C 23.980469 25.078125 23.917969 25.011719 23.851562 24.945312 C 24.863281 24.53125 25.621094 23.84375 26.125 22.882812 C 26.191406 22.949219 26.257812 23.015625 26.324219 23.082031 C 26.910156 22.464844 27.4375 21.808594 27.90625 21.117188 C 28.367188 21.285156 28.597656 21.089844 28.601562 20.527344 C 28.832031 20.570312 29.03125 20.503906 29.195312 20.332031 C 29.761719 19.652344 30.421875 19.0625 31.171875 18.5625 C 31.398438 17.867188 31.730469 17.410156 32.164062 17.1875 C 32.546875 17.144531 32.875 16.980469 33.152344 16.695312 C 33.085938 16.632812 33.019531 16.566406 32.953125 16.5 C 33.378906 16.414062 33.640625 16.25 33.746094 16.007812 Z M 33.746094 16.007812 "/>
</g>
<mask id="mask14">
  <g filter="url(#alpha)">
<rect x="0" y="0" width="210" height="44" style="fill:rgb(0%,0%,0%);fill-opacity:0.994;stroke:none;"/>
  </g>
</mask>
<clipPath id="clip23">
  <rect x="0" y="0" width="210" height="44"/>
</clipPath>
<g id="surface71" clip-path="url(#clip23)">
<path style=" stroke:none;fill-rule:evenodd;fill:rgb(52.549022%,40.392157%,81.960785%);fill-opacity:1;" d="M 19.496094 17.777344 C 19.496094 18.300781 19.496094 18.824219 19.496094 19.347656 C 19.3125 19.558594 19.246094 19.820312 19.296875 20.132812 C 19.089844 20.105469 18.890625 20.136719 18.703125 20.230469 C 18.769531 20.296875 18.835938 20.363281 18.902344 20.429688 C 17.609375 21.644531 16.324219 22.855469 15.042969 24.0625 C 14.863281 23.835938 14.695312 23.867188 14.546875 24.160156 C 14.613281 24.226562 14.679688 24.292969 14.746094 24.355469 C 14.054688 24.976562 13.363281 25.597656 12.667969 26.222656 C 12.601562 26.15625 12.535156 26.09375 12.46875 26.027344 C 12.371094 26.28125 12.339844 26.542969 12.371094 26.8125 C 11.867188 27.003906 11.4375 27.332031 11.082031 27.792969 C 11.019531 27.730469 10.953125 27.664062 10.886719 27.597656 C 9.773438 29.027344 8.484375 30.273438 7.027344 31.332031 C 7.144531 30.523438 7.34375 29.738281 7.621094 28.972656 C 7.980469 28.453125 8.375 27.960938 8.808594 27.5 C 10.457031 26.191406 12.007812 24.785156 13.460938 23.277344 C 13.976562 22.996094 14.472656 22.539062 14.945312 21.902344 C 15.550781 21.617188 15.980469 21.160156 16.230469 20.527344 C 16.296875 20.59375 16.363281 20.65625 16.429688 20.722656 C 17.550781 19.695312 18.574219 18.710938 19.496094 17.777344 Z M 19.496094 17.777344 "/>
</g>
<mask id="mask15">
  <g filter="url(#alpha)">
<rect x="0" y="0" width="210" height="44" style="fill:rgb(0%,0%,0%);fill-opacity:0.447;stroke:none;"/>
  </g>
</mask>
<clipPath id="clip24">
  <rect x="0" y="0" width="210" height="44"/>
</clipPath>
<g id="surface74" clip-path="url(#clip24)">
<path style=" stroke:none;fill-rule:evenodd;fill:rgb(63.529414%,63.529414%,63.529414%);fill-opacity:1;" d="M 63.832031 19.542969 C 64.023438 19.890625 64.085938 20.285156 64.027344 20.722656 C 62.277344 20.789062 60.5625 20.722656 58.882812 20.527344 C 60.53125 20.527344 62.183594 20.527344 63.832031 20.527344 C 63.832031 20.199219 63.832031 19.871094 63.832031 19.542969 Z M 63.832031 19.542969 "/>
</g>
<mask id="mask16">
  <g filter="url(#alpha)">
<rect x="0" y="0" width="210" height="44" style="fill:rgb(0%,0%,0%);fill-opacity:0.447;stroke:none;"/>
  </g>
</mask>
<clipPath id="clip25">
  <rect x="0" y="0" width="210" height="44"/>
</clipPath>
<g id="surface77" clip-path="url(#clip25)">
<path style=" stroke:none;fill-rule:evenodd;fill:rgb(64.705884%,64.705884%,64.705884%);fill-opacity:1;" d="M 184.566406 19.542969 C 184.757812 19.890625 184.824219 20.285156 184.765625 20.722656 C 183.050781 20.722656 181.332031 20.722656 179.617188 20.722656 C 179.617188 20.527344 179.617188 20.332031 179.617188 20.132812 C 181.214844 20.511719 182.863281 20.640625 184.566406 20.527344 C 184.566406 20.199219 184.566406 19.871094 184.566406 19.542969 Z M 184.566406 19.542969 "/>
</g>
<mask id="mask17">
  <g filter="url(#alpha)">
<rect x="0" y="0" width="210" height="44" style="fill:rgb(0%,0%,0%);fill-opacity:0.995;stroke:none;"/>
  </g>
</mask>
<clipPath id="clip26">
  <rect x="0" y="0" width="210" height="44"/>
</clipPath>
<g id="surface80" clip-path="url(#clip26)">
<path style=" stroke:none;fill-rule:evenodd;fill:rgb(54.901963%,38.431373%,80.784315%);fill-opacity:1;" d="M 19.496094 19.347656 C 19.496094 20.199219 19.496094 21.050781 19.496094 21.902344 C 19.238281 22.195312 19.007812 22.519531 18.804688 22.882812 C 18.738281 22.820312 18.671875 22.753906 18.605469 22.6875 C 17.75 23.832031 16.726562 24.8125 15.539062 25.632812 C 15.363281 25.796875 15.296875 25.992188 15.339844 26.222656 C 15.132812 26.195312 14.933594 26.226562 14.746094 26.320312 C 15.007812 26.453125 15.007812 26.582031 14.746094 26.714844 C 12.3125 28.800781 9.9375 30.960938 7.621094 33.195312 C 8.03125 33.582031 8.097656 34.007812 7.816406 34.472656 C 7.441406 34.183594 7.210938 33.789062 7.125 33.292969 C 7.027344 32.644531 6.992188 31.988281 7.027344 31.332031 C 8.484375 30.273438 9.773438 29.027344 10.886719 27.597656 C 10.953125 27.664062 11.019531 27.730469 11.082031 27.792969 C 11.4375 27.332031 11.867188 27.003906 12.371094 26.8125 C 12.339844 26.542969 12.371094 26.28125 12.46875 26.027344 C 12.535156 26.09375 12.601562 26.15625 12.667969 26.222656 C 13.363281 25.597656 14.054688 24.976562 14.746094 24.355469 C 14.679688 24.292969 14.613281 24.226562 14.546875 24.160156 C 14.695312 23.867188 14.863281 23.835938 15.042969 24.0625 C 16.324219 22.855469 17.609375 21.644531 18.902344 20.429688 C 18.835938 20.363281 18.769531 20.296875 18.703125 20.230469 C 18.890625 20.136719 19.089844 20.105469 19.296875 20.132812 C 19.246094 19.820312 19.3125 19.558594 19.496094 19.347656 Z M 19.496094 19.347656 "/>
</g>
<clipPath id="clip27">
  <rect x="0" y="0" width="210" height="44"/>
</clipPath>
<g id="surface83" clip-path="url(#clip27)">
<path style=" stroke:none;fill-rule:evenodd;fill:rgb(69.803923%,23.921569%,74.901962%);fill-opacity:1;" d="M 34.734375 20.332031 C 35.277344 20.671875 35.675781 21.128906 35.921875 21.707031 C 35.3125 21.730469 34.949219 22.058594 34.835938 22.6875 C 34.625 22.824219 34.394531 22.921875 34.140625 22.980469 C 34.207031 23.046875 34.273438 23.113281 34.339844 23.179688 C 33.394531 24.007812 32.40625 24.796875 31.371094 25.535156 C 31.242188 25.851562 31.078125 26.144531 30.875 26.417969 C 30.8125 26.355469 30.746094 26.289062 30.679688 26.222656 C 30.546875 26.484375 30.414062 26.746094 30.28125 27.007812 C 30.21875 26.945312 30.152344 26.878906 30.085938 26.8125 C 29.835938 27.386719 29.40625 27.746094 28.796875 27.894531 C 28.863281 27.957031 28.929688 28.023438 28.996094 28.089844 C 26.847656 29.828125 24.671875 31.828125 22.464844 34.082031 C 22.28125 34.203125 22.085938 34.269531 21.871094 34.277344 C 21.871094 33.425781 21.871094 32.574219 21.871094 31.722656 C 23.355469 30.476562 24.808594 29.203125 26.226562 27.894531 C 26.160156 27.828125 26.09375 27.761719 26.027344 27.695312 C 26.355469 27.5 26.6875 27.304688 27.015625 27.105469 C 27.703125 26.175781 28.5625 25.421875 29.589844 24.847656 C 30.996094 23.332031 32.445312 21.859375 33.945312 20.429688 C 34.234375 20.5 34.496094 20.464844 34.734375 20.332031 Z M 34.734375 20.332031 "/>
</g>
<mask id="mask18">
  <g filter="url(#alpha)">
<rect x="0" y="0" width="210" height="44" style="fill:rgb(0%,0%,0%);fill-opacity:0.992;stroke:none;"/>
  </g>
</mask>
<clipPath id="clip28">
  <rect x="0" y="0" width="210" height="44"/>
</clipPath>
<g id="surface86" clip-path="url(#clip28)">
<path style=" stroke:none;fill-rule:evenodd;fill:rgb(72.549021%,20.392157%,72.941178%);fill-opacity:1;" d="M 35.921875 21.707031 C 37.027344 23.679688 36.863281 25.578125 35.429688 27.402344 C 35.007812 27.855469 34.511719 28.183594 33.945312 28.382812 C 33.945312 28.085938 34.078125 27.855469 34.339844 27.695312 C 34.273438 27.632812 34.207031 27.566406 34.140625 27.5 C 34.660156 27.183594 35.121094 26.789062 35.527344 26.320312 C 35.121094 25.992188 35.1875 25.664062 35.726562 25.339844 C 35.09375 25.277344 34.730469 25.574219 34.636719 26.222656 C 34.308594 26.417969 34.042969 26.679688 33.84375 27.007812 C 33.78125 26.945312 33.714844 26.878906 33.648438 26.8125 C 33.261719 27.457031 32.800781 28.046875 32.261719 28.582031 C 32.195312 28.515625 32.128906 28.449219 32.0625 28.382812 C 30.804688 29.667969 29.519531 30.910156 28.203125 32.117188 C 28.027344 32.277344 27.964844 32.472656 28.007812 32.707031 C 27.734375 32.675781 27.472656 32.707031 27.214844 32.804688 C 27.480469 32.933594 27.480469 33.066406 27.214844 33.195312 C 27.027344 33.292969 26.828125 33.324219 26.621094 33.292969 C 26.445312 33.980469 25.980469 34.40625 25.234375 34.570312 C 25.300781 34.636719 25.367188 34.703125 25.433594 34.769531 C 25.066406 35.261719 24.636719 35.6875 24.148438 36.042969 C 24.082031 35.980469 24.015625 35.914062 23.949219 35.847656 C 23.683594 36.242188 23.355469 36.570312 22.960938 36.832031 C 22.894531 37.027344 22.828125 37.222656 22.761719 37.417969 C 22.582031 37.191406 22.414062 37.226562 22.265625 37.519531 C 22.6875 37.585938 22.753906 37.75 22.464844 38.007812 C 22.0625 37.730469 21.863281 37.339844 21.871094 36.832031 C 21.871094 35.980469 21.871094 35.128906 21.871094 34.277344 C 22.085938 34.269531 22.28125 34.203125 22.464844 34.082031 C 24.671875 31.828125 26.847656 29.828125 28.996094 28.089844 C 28.929688 28.023438 28.863281 27.957031 28.796875 27.894531 C 29.40625 27.746094 29.835938 27.386719 30.085938 26.8125 C 30.152344 26.878906 30.21875 26.945312 30.28125 27.007812 C 30.414062 26.746094 30.546875 26.484375 30.679688 26.222656 C 30.746094 26.289062 30.8125 26.355469 30.875 26.417969 C 31.078125 26.144531 31.242188 25.851562 31.371094 25.535156 C 32.40625 24.796875 33.394531 24.007812 34.339844 23.179688 C 34.273438 23.113281 34.207031 23.046875 34.140625 22.980469 C 34.394531 22.921875 34.625 22.824219 34.835938 22.6875 C 34.949219 22.058594 35.3125 21.730469 35.921875 21.707031 Z M 35.921875 21.707031 "/>
</g>
<mask id="mask19">
  <g filter="url(#alpha)">
<rect x="0" y="0" width="210" height="44" style="fill:rgb(0%,0%,0%);fill-opacity:0.995;stroke:none;"/>
  </g>
</mask>
<clipPath id="clip29">
  <rect x="0" y="0" width="210" height="44"/>
</clipPath>
<g id="surface89" clip-path="url(#clip29)">
<path style=" stroke:none;fill-rule:evenodd;fill:rgb(60.000002%,33.333334%,79.215688%);fill-opacity:1;" d="M 19.496094 24.457031 C 19.496094 25.242188 19.496094 26.027344 19.496094 26.8125 C 19.222656 27.316406 18.890625 27.808594 18.507812 28.285156 C 17.996094 28.460938 17.535156 28.722656 17.121094 29.070312 C 17.1875 29.136719 17.253906 29.203125 17.320312 29.269531 C 16.433594 30.113281 15.511719 30.898438 14.546875 31.625 C 14.613281 31.691406 14.679688 31.757812 14.746094 31.820312 C 13.925781 33.125 12.871094 34.207031 11.578125 35.0625 C 11.402344 35.222656 11.335938 35.421875 11.378906 35.652344 C 10.636719 35.664062 10.375 35.992188 10.589844 36.632812 C 9.589844 36.402344 8.800781 35.878906 8.214844 35.0625 C 10.234375 32.917969 12.476562 30.855469 14.945312 28.875 C 14.878906 28.808594 14.8125 28.742188 14.746094 28.679688 C 15.285156 28.484375 15.617188 28.121094 15.734375 27.597656 C 16.742188 27.0625 17.664062 26.375 18.507812 25.535156 C 18.441406 25.46875 18.375 25.40625 18.308594 25.339844 C 18.796875 25.148438 19.191406 24.851562 19.496094 24.457031 Z M 19.496094 24.457031 "/>
</g>
<mask id="mask20">
  <g filter="url(#alpha)">
<rect x="0" y="0" width="210" height="44" style="fill:rgb(0%,0%,0%);fill-opacity:0.991;stroke:none;"/>
  </g>
</mask>
<clipPath id="clip30">
  <rect x="0" y="0" width="210" height="44"/>
</clipPath>
<g id="surface92" clip-path="url(#clip30)">
<path style=" stroke:none;fill-rule:evenodd;fill:rgb(75.686276%,17.647059%,72.549021%);fill-opacity:1;" d="M 33.945312 28.382812 C 33.769531 28.886719 33.703125 29.410156 33.746094 29.957031 C 33.777344 30.226562 33.746094 30.488281 33.648438 30.742188 C 33.582031 30.675781 33.515625 30.609375 33.449219 30.542969 C 32.234375 32.105469 30.980469 33.21875 29.6875 33.882812 C 29.152344 34.753906 28.457031 35.476562 27.609375 36.042969 C 27.433594 36.207031 27.371094 36.402344 27.414062 36.632812 C 26.9375 36.714844 26.574219 36.976562 26.324219 37.417969 C 26.257812 37.355469 26.191406 37.289062 26.125 37.222656 C 25.980469 37.828125 25.617188 38.253906 25.039062 38.5 C 25.105469 38.566406 25.167969 38.632812 25.234375 38.695312 C 24.792969 38.886719 24.332031 38.988281 23.851562 38.992188 C 23.222656 38.890625 22.761719 38.5625 22.464844 38.007812 C 22.753906 37.75 22.6875 37.585938 22.265625 37.519531 C 22.414062 37.226562 22.582031 37.191406 22.761719 37.417969 C 22.828125 37.222656 22.894531 37.027344 22.960938 36.832031 C 23.355469 36.570312 23.683594 36.242188 23.949219 35.847656 C 24.015625 35.914062 24.082031 35.980469 24.148438 36.042969 C 24.636719 35.6875 25.066406 35.261719 25.433594 34.769531 C 25.367188 34.703125 25.300781 34.636719 25.234375 34.570312 C 25.980469 34.40625 26.445312 33.980469 26.621094 33.292969 C 26.828125 33.324219 27.027344 33.292969 27.214844 33.195312 C 27.480469 33.066406 27.480469 32.933594 27.214844 32.804688 C 27.472656 32.707031 27.734375 32.675781 28.007812 32.707031 C 27.964844 32.472656 28.027344 32.277344 28.203125 32.117188 C 29.519531 30.910156 30.804688 29.667969 32.0625 28.382812 C 32.128906 28.449219 32.195312 28.515625 32.261719 28.582031 C 32.800781 28.046875 33.261719 27.457031 33.648438 26.8125 C 33.714844 26.878906 33.78125 26.945312 33.84375 27.007812 C 34.042969 26.679688 34.308594 26.417969 34.636719 26.222656 C 34.730469 25.574219 35.09375 25.277344 35.726562 25.339844 C 35.1875 25.664062 35.121094 25.992188 35.527344 26.320312 C 35.121094 26.789062 34.660156 27.183594 34.140625 27.5 C 34.207031 27.566406 34.273438 27.632812 34.339844 27.695312 C 34.078125 27.855469 33.945312 28.085938 33.945312 28.382812 Z M 33.945312 28.382812 "/>
</g>
<mask id="mask21">
  <g filter="url(#alpha)">
<rect x="0" y="0" width="210" height="44" style="fill:rgb(0%,0%,0%);fill-opacity:0.989;stroke:none;"/>
  </g>
</mask>
<clipPath id="clip31">
  <rect x="0" y="0" width="210" height="44"/>
</clipPath>
<g id="surface95" clip-path="url(#clip31)">
<path style=" stroke:none;fill-rule:evenodd;fill:rgb(63.137257%,30.19608%,77.64706%);fill-opacity:1;" d="M 19.496094 26.8125 C 19.496094 28.320312 19.496094 29.824219 19.496094 31.332031 C 19.34375 31.179688 19.246094 30.984375 19.199219 30.742188 C 19.148438 30.960938 19.050781 31.160156 18.902344 31.332031 C 18.21875 31.960938 17.492188 32.546875 16.726562 33.097656 C 16.605469 33.351562 16.507812 33.613281 16.429688 33.882812 C 16.28125 33.660156 16.117188 33.660156 15.933594 33.882812 C 15.066406 34.769531 14.144531 35.71875 13.164062 36.730469 C 13.273438 36.808594 13.339844 36.90625 13.359375 37.027344 C 12.429688 36.90625 11.503906 36.777344 10.589844 36.632812 C 10.375 35.992188 10.636719 35.664062 11.378906 35.652344 C 11.335938 35.421875 11.402344 35.222656 11.578125 35.0625 C 12.871094 34.207031 13.925781 33.125 14.746094 31.820312 C 14.679688 31.757812 14.613281 31.691406 14.546875 31.625 C 15.511719 30.898438 16.433594 30.113281 17.320312 29.269531 C 17.253906 29.203125 17.1875 29.136719 17.121094 29.070312 C 17.535156 28.722656 17.996094 28.460938 18.507812 28.285156 C 18.890625 27.808594 19.222656 27.316406 19.496094 26.8125 Z M 19.496094 26.8125 "/>
</g>
<mask id="mask22">
  <g filter="url(#alpha)">
<rect x="0" y="0" width="210" height="44" style="fill:rgb(0%,0%,0%);fill-opacity:0.337;stroke:none;"/>
  </g>
</mask>
<clipPath id="clip32">
  <rect x="0" y="0" width="210" height="44"/>
</clipPath>
<g id="surface98" clip-path="url(#clip32)">
<path style=" stroke:none;fill-rule:evenodd;fill:rgb(54.11765%,54.11765%,54.11765%);fill-opacity:1;" d="M 199.410156 31.132812 C 201.128906 31.132812 202.839844 31.132812 204.558594 31.132812 C 204.621094 32.546875 204.554688 33.921875 204.359375 35.257812 C 204.359375 33.949219 204.359375 32.640625 204.359375 31.332031 C 202.671875 31.394531 201.023438 31.328125 199.410156 31.132812 Z M 199.410156 31.132812 "/>
</g>
<mask id="mask23">
  <g filter="url(#alpha)">
<rect x="0" y="0" width="210" height="44" style="fill:rgb(0%,0%,0%);fill-opacity:0.994;stroke:none;"/>
  </g>
</mask>
<clipPath id="clip33">
  <rect x="0" y="0" width="210" height="44"/>
</clipPath>
<g id="surface101" clip-path="url(#clip33)">
<path style=" stroke:none;fill-rule:evenodd;fill:rgb(67.450982%,25.882354%,75.294119%);fill-opacity:1;" d="M 19.496094 31.332031 C 19.527344 33.230469 19.496094 35.128906 19.398438 37.027344 C 18.664062 38.863281 17.3125 39.550781 15.339844 39.089844 C 14.367188 38.683594 13.707031 37.996094 13.359375 37.027344 C 13.339844 36.90625 13.273438 36.808594 13.164062 36.730469 C 14.144531 35.71875 15.066406 34.769531 15.933594 33.882812 C 16.117188 33.660156 16.28125 33.660156 16.429688 33.882812 C 16.507812 33.613281 16.605469 33.351562 16.726562 33.097656 C 17.492188 32.546875 18.21875 31.960938 18.902344 31.332031 C 19.050781 31.160156 19.148438 30.960938 19.199219 30.742188 C 19.246094 30.984375 19.34375 31.179688 19.496094 31.332031 Z M 19.496094 31.332031 "/>
</g>
</defs>
<g id="surface1">
<use xlink:href="#surface5" mask="url(#mask0)"/>
<use xlink:href="#surface8"/>
<use xlink:href="#surface11" mask="url(#mask1)"/>
<use xlink:href="#surface14" mask="url(#mask2)"/>
<use xlink:href="#surface17"/>
<use xlink:href="#surface20" mask="url(#mask3)"/>
<use xlink:href="#surface23"/>
<use xlink:href="#surface26"/>
<use xlink:href="#surface29"/>
<use xlink:href="#surface32" mask="url(#mask4)"/>
<use xlink:href="#surface35" mask="url(#mask5)"/>
<use xlink:href="#surface38" mask="url(#mask6)"/>
<use xlink:href="#surface41" mask="url(#mask7)"/>
<use xlink:href="#surface44" mask="url(#mask8)"/>
<use xlink:href="#surface47" mask="url(#mask9)"/>
<use xlink:href="#surface50" mask="url(#mask10)"/>
<use xlink:href="#surface53"/>
<use xlink:href="#surface56"/>
<use xlink:href="#surface59" mask="url(#mask11)"/>
<use xlink:href="#surface62" mask="url(#mask12)"/>
<use xlink:href="#surface65" mask="url(#mask13)"/>
<use xlink:href="#surface68"/>
<use xlink:href="#surface71" mask="url(#mask14)"/>
<path style=" stroke:none;fill-rule:evenodd;fill:rgb(67.058825%,26.666668%,76.078433%);fill-opacity:1;" d="M 33.546875 19.152344 C 33.882812 19.617188 34.28125 20.007812 34.734375 20.332031 C 34.496094 20.464844 34.234375 20.5 33.945312 20.429688 C 32.445312 21.859375 30.996094 23.332031 29.589844 24.847656 C 28.5625 25.421875 27.703125 26.175781 27.015625 27.105469 C 26.6875 27.304688 26.355469 27.5 26.027344 27.695312 C 26.09375 27.761719 26.160156 27.828125 26.226562 27.894531 C 24.808594 29.203125 23.355469 30.476562 21.871094 31.722656 C 21.871094 31.003906 21.871094 30.28125 21.871094 29.5625 C 22.851562 28.6875 23.808594 27.769531 24.742188 26.8125 C 24.808594 26.878906 24.871094 26.945312 24.9375 27.007812 C 25.257812 26.472656 25.6875 26.046875 26.226562 25.730469 C 26.160156 25.667969 26.09375 25.601562 26.027344 25.535156 C 27.085938 24.800781 27.910156 23.984375 28.5 23.082031 C 28.566406 23.144531 28.632812 23.210938 28.699219 23.277344 C 30.09375 21.832031 31.609375 20.390625 33.25 18.957031 C 33.328125 19.066406 33.425781 19.128906 33.546875 19.152344 Z M 33.546875 19.152344 "/>
<use xlink:href="#surface74" mask="url(#mask15)"/>
<use xlink:href="#surface77" mask="url(#mask16)"/>
<use xlink:href="#surface80" mask="url(#mask17)"/>
<use xlink:href="#surface83"/>
<use xlink:href="#surface86" mask="url(#mask18)"/>
<path style=" stroke:none;fill-rule:evenodd;fill:rgb(56.862748%,36.470589%,80.392158%);fill-opacity:1;" d="M 19.496094 21.902344 C 19.496094 22.753906 19.496094 23.605469 19.496094 24.457031 C 19.191406 24.851562 18.796875 25.148438 18.308594 25.339844 C 18.375 25.40625 18.441406 25.46875 18.507812 25.535156 C 17.664062 26.375 16.742188 27.0625 15.734375 27.597656 C 15.617188 28.121094 15.285156 28.484375 14.746094 28.679688 C 14.8125 28.742188 14.878906 28.808594 14.945312 28.875 C 12.476562 30.855469 10.234375 32.917969 8.214844 35.0625 C 7.9375 34.96875 7.804688 34.773438 7.816406 34.472656 C 8.097656 34.007812 8.03125 33.582031 7.621094 33.195312 C 9.9375 30.960938 12.3125 28.800781 14.746094 26.714844 C 15.007812 26.582031 15.007812 26.453125 14.746094 26.320312 C 14.933594 26.226562 15.132812 26.195312 15.339844 26.222656 C 15.296875 25.992188 15.363281 25.796875 15.539062 25.632812 C 16.726562 24.8125 17.75 23.832031 18.605469 22.6875 C 18.671875 22.753906 18.738281 22.820312 18.804688 22.882812 C 19.007812 22.519531 19.238281 22.195312 19.496094 21.902344 Z M 19.496094 21.902344 "/>
<use xlink:href="#surface89" mask="url(#mask19)"/>
<use xlink:href="#surface92" mask="url(#mask20)"/>
<use xlink:href="#surface95" mask="url(#mask21)"/>
<path style=" stroke:none;fill-rule:evenodd;fill:rgb(76.862746%,14.509805%,69.01961%);fill-opacity:1;" d="M 33.746094 29.957031 C 34.8125 32.851562 33.957031 35.042969 31.171875 36.535156 C 30.195312 36.75 29.207031 36.878906 28.203125 36.929688 C 27.679688 37.648438 27.085938 38.300781 26.421875 38.894531 C 25.546875 39.21875 24.691406 39.25 23.851562 38.992188 C 24.332031 38.988281 24.792969 38.886719 25.234375 38.695312 C 25.167969 38.632812 25.105469 38.566406 25.039062 38.5 C 25.617188 38.253906 25.980469 37.828125 26.125 37.222656 C 26.191406 37.289062 26.257812 37.355469 26.324219 37.417969 C 26.574219 36.976562 26.9375 36.714844 27.414062 36.632812 C 27.371094 36.402344 27.433594 36.207031 27.609375 36.042969 C 28.457031 35.476562 29.152344 34.753906 29.6875 33.882812 C 30.980469 33.21875 32.234375 32.105469 33.449219 30.542969 C 33.515625 30.609375 33.582031 30.675781 33.648438 30.742188 C 33.746094 30.488281 33.777344 30.226562 33.746094 29.957031 Z M 33.746094 29.957031 "/>
<use xlink:href="#surface98" mask="url(#mask22)"/>
<use xlink:href="#surface101" mask="url(#mask23)"/>
</g>
</svg>
