<svg width="44" height="44" viewBox="0 0 100 100" fill="none" xmlns="http://www.w3.org/2000/svg">
<path d="M46.4679 89.3718L46.4651 89.3734C46.4669 89.4563 46.4679 89.5392 46.4679 89.6226C46.4679 95.3539 42.0905 100 36.6907 100C32.7532 100 29.3594 97.5295 27.81 93.9695C27.234 92.6461 25.8934 91.7321 24.5283 91.8921C23.9664 91.9582 23.3955 91.9918 22.8171 91.9918C14.3025 91.9918 7.40014 84.6658 7.40014 75.6287C7.40014 72.9629 8.00065 70.4463 9.06594 68.2224C9.8169 66.6547 9.2188 64.5376 7.78016 63.6653C3.1325 60.8468 -5.01455e-07 55.5353 0 49.4474C5.1177e-07 43.2339 3.2627 37.8295 8.06883 35.0587C9.37594 34.305 10.0037 32.5445 9.49403 31.0613C8.89303 29.3124 8.56513 27.4239 8.56513 25.4542C8.56513 17.1265 14.4263 10.2517 22.0091 9.22366C23.0323 9.08492 23.9102 8.35037 24.324 7.3476C26.1094 3.02195 30.1788 -4.39287e-07 34.9129 0C40.8293 5.48976e-07 45.7072 4.7195 46.3868 10.805C46.3893 10.826 46.4076 10.8408 46.4272 10.8373C46.4485 10.8334 46.4679 10.8508 46.4679 10.8736V89.3718Z" fill="url(#paint0_linear_1_7)"/>
<path d="M53.5349 89.3734C53.5331 89.4563 53.5321 89.5392 53.5321 89.6226C53.5321 95.3539 57.9095 100 63.3093 100C67.2468 100 70.6406 97.5295 72.19 93.9695C72.766 92.6461 74.1066 91.7321 75.4717 91.8921C76.0335 91.9582 76.6045 91.9918 77.183 91.9918C85.6974 91.9918 92.5998 84.6658 92.5998 75.6287C92.5998 72.9629 91.9993 70.4463 90.9341 68.2224C90.1831 66.6547 90.7812 64.5376 92.2199 63.6653C96.8675 60.8468 100 55.5353 100 49.4474C100 43.2339 96.7374 37.8295 91.9311 35.0587C90.6242 34.305 89.9964 32.5445 90.5059 31.0613C91.1069 29.3124 91.435 27.4239 91.435 25.4542C91.435 17.1265 85.5737 10.2517 77.991 9.22366C76.9678 9.08492 76.0898 8.35037 75.676 7.3476C73.8906 3.02195 69.8214 -4.39287e-07 65.0871 0C59.1707 5.48976e-07 54.2928 4.7195 53.6132 10.805C53.6107 10.826 53.5924 10.8408 53.5728 10.8373C53.5515 10.8334 53.5321 10.8508 53.5321 10.8736V89.3718L53.5349 89.3734Z" fill="url(#paint1_linear_1_7)"/>
<defs>
<linearGradient id="paint0_linear_1_7" x1="-5.79275e-06" y1="-0.999994" x2="76.4324" y2="163.483" gradientUnits="userSpaceOnUse">
<stop stop-color="#49A3ED"/>
<stop offset="1" stop-color="#E315B1"/>
</linearGradient>
<linearGradient id="paint1_linear_1_7" x1="-4.356e-06" y1="-0.999996" x2="100" y2="98.9999" gradientUnits="userSpaceOnUse">
<stop stop-color="#49A3ED"/>
<stop offset="1" stop-color="#E315B1"/>
</linearGradient>
</defs>
</svg>
