<svg width="24" height="24" viewBox="0 0 24 24" fill="none" xmlns="http://www.w3.org/2000/svg">
<g clip-path="url(#clip0_1_8)">
<path d="M11.126 1.57205C11.5071 0.886603 12.4929 0.886601 12.874 1.57204L22.4322 18.7641C22.8028 19.4306 22.3208 20.25 21.5582 20.25H2.4418C1.67917 20.25 1.19722 19.4306 1.56779 18.7641L11.126 1.57205Z" fill="#CD9B42"/>
<path d="M12 17H12.01" stroke="white" stroke-width="2" stroke-linecap="round" stroke-linejoin="round"/>
<path d="M12 7V13" stroke="white" stroke-width="2" stroke-linecap="round" stroke-linejoin="round"/>
<path d="M22.7055 17.6692L13.9125 2.12568C13.7208 1.78395 13.4427 1.49971 13.1068 1.30195C12.7708 1.10419 12.3889 1 12 1C11.6112 1 11.2293 1.10419 10.8933 1.30195C10.5573 1.49971 10.2793 1.78395 10.0876 2.12568L1.29456 17.6692C1.10077 18.0082 0.999147 18.3929 1.00001 18.7844C1.00086 19.1759 1.10417 19.5602 1.29945 19.8983C1.49473 20.2365 1.77504 20.5165 2.11197 20.7099C2.44891 20.9034 2.83048 21.0034 3.21803 20.9999H20.804C21.1897 20.9995 21.5685 20.8966 21.9023 20.7016C22.2362 20.5065 22.5134 20.2262 22.7061 19.8887C22.8987 19.5512 23.0001 19.1684 23 18.7788C22.9999 18.3893 22.8983 18.0066 22.7055 17.6692Z" stroke="white" stroke-width="2" stroke-linecap="round" stroke-linejoin="round"/>
</g>
<defs>
<clipPath id="clip0_1_8">
<rect width="24" height="24" fill="white"/>
</clipPath>
</defs>
</svg>
