<svg width="121" height="114" viewBox="0 0 121 114" fill="none" xmlns="http://www.w3.org/2000/svg">
<path d="M56.2261 101.884L56.2228 101.886C56.2249 101.98 56.2261 102.075 56.2261 102.17C56.2261 108.703 50.9295 114 44.3957 114C39.6313 114 35.5248 111.184 33.6501 107.125C32.9532 105.617 31.3311 104.575 29.6793 104.757C28.9994 104.832 28.3085 104.871 27.6087 104.871C17.3061 104.871 8.95417 96.519 8.95417 86.2167C8.95417 83.1777 9.68079 80.3088 10.9698 77.7735C11.8784 75.9864 11.1547 73.5729 9.41399 72.5784C3.79033 69.3654 -6.06761e-07 63.3102 0 56.37C6.19241e-07 49.2867 3.94786 43.1256 9.76329 39.9669C11.3449 39.1077 12.1045 37.1007 11.4878 35.4099C10.7606 33.4161 10.3638 31.2633 10.3638 29.0178C10.3638 19.5242 17.4558 11.687 26.631 10.515C27.869 10.3568 28.9313 9.51942 29.4321 8.37627C31.5924 3.44502 36.5164 -5.00787e-07 42.2447 0C49.4034 6.25833e-07 55.3057 5.38023 56.128 12.3177C56.131 12.3416 56.1532 12.3585 56.1769 12.3545C56.2027 12.3501 56.2261 12.3699 56.2261 12.3959V101.884Z" fill="url(#paint0_linear_1_5)"/>
<path d="M64.7772 101.886C64.7781 101.885 64.7772 101.885 64.7772 101.886C64.7751 101.98 64.7739 102.075 64.7739 102.17C64.7739 108.703 70.0705 114 76.6043 114C81.3687 114 85.4752 111.184 87.3499 107.125C88.0468 105.617 89.6689 104.575 91.3208 104.757C92.0006 104.832 92.6915 104.871 93.3914 104.871C103.694 104.871 112.046 96.519 112.046 86.2167C112.046 83.1777 111.319 80.3088 110.03 77.7735C109.122 75.9864 109.845 73.5729 111.586 72.5784C117.21 69.3654 121 63.3102 121 56.37C121 49.2867 117.052 43.1256 111.237 39.9669C109.655 39.1077 108.896 37.1007 109.512 35.4099C110.239 33.4161 110.636 31.2633 110.636 29.0178C110.636 19.5242 103.544 11.687 94.3691 10.515C93.131 10.3568 92.0687 9.51942 91.568 8.37627C89.4076 3.44502 84.4839 -5.00787e-07 78.7553 0C71.5966 6.25833e-07 65.6943 5.38023 64.872 12.3177C64.869 12.3416 64.8468 12.3585 64.8231 12.3545C64.7973 12.3501 64.7739 12.3699 64.7739 12.3959V101.884C64.7739 101.885 64.7733 101.884 64.7739 101.884L64.7772 101.886Z" fill="url(#paint1_linear_1_5)"/>
<defs>
<linearGradient id="paint0_linear_1_5" x1="-7.00923e-06" y1="-1.13999" x2="83.7635" y2="190.189" gradientUnits="userSpaceOnUse">
<stop stop-color="#49A3ED"/>
<stop offset="1" stop-color="#E315B1"/>
</linearGradient>
<linearGradient id="paint1_linear_1_5" x1="-5.27076e-06" y1="-1.14" x2="113.798" y2="119.645" gradientUnits="userSpaceOnUse">
<stop stop-color="#49A3ED"/>
<stop offset="1" stop-color="#E315B1"/>
</linearGradient>
</defs>
</svg>
